<svg id="Capa_1" enable-background="new 0 0 512 512" height="512" viewBox="0 0 512 512" width="512" xmlns="http://www.w3.org/2000/svg"><g><path d="m7.502 108.189h31.063c4.142 0 7.5-3.358 7.5-7.5v-54.624h54.625c4.142 0 7.5-3.358 7.5-7.5v-31.063c0-4.142-3.358-7.5-7.5-7.5h-93.188c-4.142 0-7.5 3.358-7.5 7.5v93.187c0 4.142 3.358 7.5 7.5 7.5zm7.5-93.187h78.187v16.063h-54.624c-4.142 0-7.5 3.358-7.5 7.5v54.625h-16.063z"/><path d="m411.311 46.065h54.625v54.625c0 4.142 3.358 7.5 7.5 7.5h31.063c4.142 0 7.5-3.358 7.5-7.5v-93.188c0-4.142-3.358-7.5-7.5-7.5h-93.187c-4.142 0-7.5 3.358-7.5 7.5v31.063c-.001 4.142 3.357 7.5 7.499 7.5zm7.5-31.063h78.187v78.187h-16.063v-54.624c0-4.142-3.358-7.5-7.5-7.5h-54.625v-16.063z"/><path d="m100.689 465.936h-54.624v-54.625c0-4.142-3.358-7.5-7.5-7.5h-31.063c-4.142 0-7.5 3.358-7.5 7.5v93.187c0 4.142 3.358 7.5 7.5 7.5h93.187c4.142 0 7.5-3.358 7.5-7.5v-31.063c0-4.141-3.358-7.499-7.5-7.499zm-7.5 31.062h-78.187v-78.187h16.063v54.625c0 4.142 3.358 7.5 7.5 7.5h54.625v16.062z"/><path d="m504.498 403.811h-31.063c-4.142 0-7.5 3.358-7.5 7.5v54.625h-54.625c-4.142 0-7.5 3.358-7.5 7.5v31.063c0 4.142 3.358 7.5 7.5 7.5h93.187c4.142 0 7.5-3.358 7.5-7.5v-93.187c.001-4.143-3.357-7.501-7.499-7.501zm-7.5 93.187h-78.187v-16.063h54.625c4.142 0 7.5-3.358 7.5-7.5v-54.625h16.063v78.188z"/><path d="m511.181 259.408c1.092-2.141 1.092-4.676 0-6.816-25.729-50.436-61.053-90.579-104.991-119.316-40.884-26.74-88.021-42.182-136.316-44.656-4.136-.217-7.662 2.97-7.874 7.106-.212 4.137 2.97 7.662 7.106 7.874 94.768 4.856 179.342 61.738 226.949 152.4-50.242 95.754-139.708 152.746-240.109 152.746-.162 0-.324 0-.486 0-100.569-.184-189.845-57.201-239.532-152.745 46.13-88.607 128.64-145.356 221.422-152.061 4.131-.298 7.238-3.89 6.94-8.021s-3.896-7.24-8.021-6.94c-47.411 3.426-93.559 19.379-133.453 46.135-42.773 28.687-77.094 68.22-102.01 117.501-1.076 2.127-1.076 4.64 0 6.767 26.232 51.895 64.421 94.409 110.437 122.947 43.537 27.001 93.397 41.322 144.189 41.415h.498c50.639-.001 100.375-14.156 143.857-40.95 46.229-28.484 84.748-71.151 111.394-123.386z"/><path d="m131.852 265.086c-4.106.545-6.993 4.316-6.447 8.422 8.654 65.129 64.798 114.242 130.595 114.242 72.647 0 131.75-59.103 131.75-131.75s-59.103-131.75-131.75-131.75c-65.989 0-122.151 49.273-130.638 114.614-.534 4.107 2.364 7.87 6.472 8.403 4.108.532 7.87-2.364 8.403-6.472 7.519-57.89 57.287-101.545 115.763-101.545 64.376 0 116.75 52.374 116.75 116.75s-52.374 116.75-116.75 116.75c-58.307 0-108.058-43.514-115.726-101.218-.545-4.106-4.317-6.988-8.422-6.446z"/><path d="m276.726 354.551c46.334-9.692 79.964-51.139 79.964-98.551 0-55.521-45.169-100.69-100.69-100.69s-100.69 45.17-100.69 100.69c0 44.559 32.855 91 87.209 99.721 3.62.581 6.872-2.691 7.413-6.426.594-4.099-2.248-7.904-6.347-8.498-41.773-6.051-73.275-42.506-73.275-84.798 0-47.25 38.44-85.69 85.69-85.69s85.69 38.44 85.69 85.69c0 40.351-28.613 75.623-68.036 83.869-4.054.848-6.653 4.823-5.806 8.877.849 4.054 4.82 6.653 8.878 5.806z"/><path d="m310.093 256c0-29.827-24.266-54.093-54.093-54.093s-54.093 24.266-54.093 54.093 24.266 54.093 54.093 54.093 54.093-24.266 54.093-54.093zm-54.093 39.093c-21.556 0-39.093-17.537-39.093-39.093s17.537-39.093 39.093-39.093 39.093 17.537 39.093 39.093-17.537 39.093-39.093 39.093z"/></g></svg>